<?xml version="1.0" encoding="UTF-8" standalone="no"?>
<!-- Created with Inkscape (http://www.inkscape.org/) -->

<svg
   version="1.1"
   id="svg2"
   width="795.83466"
   height="766.25336"
   viewBox="0 0 795.83466 766.25336"
   sodipodi:docname="Bal Vihar of St. Louis C1.ai"
   xmlns:inkscape="http://www.inkscape.org/namespaces/inkscape"
   xmlns:sodipodi="http://sodipodi.sourceforge.net/DTD/sodipodi-0.dtd"
   xmlns="http://www.w3.org/2000/svg"
   xmlns:svg="http://www.w3.org/2000/svg">
  <defs
     id="defs6">
    <clipPath
       clipPathUnits="userSpaceOnUse"
       id="clipPath16">
      <path
         d="M 0,574.69 H 596.876 V 0 H 0 Z"
         id="path14" />
    </clipPath>
  </defs>
  <sodipodi:namedview
     id="namedview4"
     pagecolor="#ffffff"
     bordercolor="#000000"
     borderopacity="0.25"
     inkscape:showpageshadow="2"
     inkscape:pageopacity="0.0"
     inkscape:pagecheckerboard="0"
     inkscape:deskcolor="#d1d1d1" />
  <g
     id="g8"
     inkscape:groupmode="layer"
     inkscape:label="Bal Vihar of St. Louis C1"
     transform="matrix(1.3333333,0,0,-1.3333333,0,766.25333)">
    <g
       id="g10">
      <g
         id="g12"
         clip-path="url(#clipPath16)">
        <g
           id="g18"
           transform="translate(391.0849,368.0564)">
          <path
             d="M 0,0 C -35.087,27.968 -68.139,2.543 -72.716,-16.272 -77.292,-35.087 -84.92,-40.68 -84.92,-40.68 c 0,0 2.543,36.103 -39.155,57.969 -41.697,21.866 -71.698,-7.627 -71.698,-7.627 l 19.831,-26.443 c 52.885,22.375 68.648,-12.204 68.648,-12.204 l -9.153,-7.627 c -32.544,9.661 -50.342,5.085 -57.461,2.034 -7.119,-3.051 -5.085,-12.713 17.798,-30.002 37.121,16.781 61.02,-1.017 63.563,-11.187 2.542,-10.17 6.102,-39.155 -41.189,-40.68 -47.291,-1.526 -70.682,46.782 -70.682,46.782 13.221,-94.581 98.141,-90.005 124.075,-65.088 23.542,22.619 9.661,59.495 9.661,59.495 l 11.187,25.933 c 11.187,25.934 30.51,37.121 44.24,29.493 13.729,-7.627 24.408,-25.425 15.255,-47.29 -9.153,-21.866 -40.172,-26.951 -40.172,-26.951 0,0 8.136,-26.442 24.917,-30.51 C 55.935,-96.107 35.087,-27.968 0,0"
             style="fill:#000080;fill-opacity:1;fill-rule:nonzero;stroke:none"
             id="path20" />
        </g>
        <g
           id="g22"
           transform="translate(286.257,390.5709)">
          <path
             d="M 0,0 C 49.58,-17.264 73.484,21.248 73.484,21.248 L 50.908,46.924 c -51.793,-53.122 -92.52,1.328 -92.52,1.328 0,0 -2.213,-30.102 41.612,-48.252"
             style="fill:#000080;fill-opacity:1;fill-rule:nonzero;stroke:none"
             id="path24" />
        </g>
        <g
           id="g26"
           transform="translate(295.8075,435.0294)">
          <path
             d="M 0,0 C 11.032,0 19.975,8.943 19.975,19.975 19.975,31.007 11.032,39.95 0,39.95 -11.032,39.95 -19.975,31.007 -19.975,19.975 -19.975,8.943 -11.032,0 0,0"
             style="fill:#000080;fill-opacity:1;fill-rule:nonzero;stroke:none"
             id="path28" />
        </g>
        <g
           id="g30"
           transform="translate(116.9313,238.8246)">
          <path
             d="M 0,0 15.703,8.01 22.62,-5.554 6.917,-13.563 Z m 49.328,-40.939 -10.763,-9.189 -7.933,9.291 c 0.311,0.153 0.618,0.322 0.921,0.505 0.793,0.479 1.561,1.035 2.282,1.651 1.532,1.308 2.915,2.85 4.113,4.583 0.824,1.196 1.588,2.474 2.28,3.817 z m -14.473,16.948 c -0.223,-0.501 -0.469,-1.034 -0.737,-1.599 -0.387,-0.816 -0.84,-1.661 -1.347,-2.513 -0.501,-0.842 -1.074,-1.678 -1.705,-2.483 -0.616,-0.785 -1.317,-1.516 -2.083,-2.17 -1.223,-1.045 -2.392,-1.661 -3.475,-1.832 -0.888,-0.14 -1.592,0.154 -2.276,0.956 -0.241,0.283 -0.425,0.586 -0.546,0.897 -0.112,0.289 -0.164,0.628 -0.153,1.008 0.012,0.435 0.11,0.958 0.291,1.555 0.194,0.639 0.5,1.396 0.911,2.247 l 0.584,1.211 -7.008,2.775 -0.488,-1.095 c -0.59,-1.321 -1.207,-2.833 -1.837,-4.491 -0.626,-1.654 -1.232,-3.446 -1.801,-5.326 -0.571,-1.881 -1.1,-3.895 -1.571,-5.986 -0.47,-2.078 -0.871,-4.252 -1.192,-6.46 -0.32,-2.208 -0.535,-4.482 -0.638,-6.761 -0.104,-2.288 -0.065,-4.61 0.115,-6.902 l 0.089,-1.131 7.692,-0.145 -0.093,1.361 c -0.264,3.848 -0.161,7.619 0.307,11.209 0.395,3.044 1.008,6.114 1.825,9.149 0.763,-0.539 1.56,-0.953 2.385,-1.239 l 11.077,-12.972 -16.148,-13.788 5.098,-5.969 32.294,27.576 0.278,-0.325 -0.166,-0.157 3.283,-3.493 1.013,-1.164 0.043,0.037 0.691,-0.735 -30.948,-29.079 5.331,-5.673 30.949,29.079 4.634,-4.933 5.207,4.893 -5.622,5.984 c 0.942,2.902 1.746,5.472 2.393,7.644 0.67,2.255 1.202,4.271 1.582,5.997 0.387,1.771 0.621,3.336 0.696,4.651 0.079,1.38 -0.022,2.655 -0.3,3.79 -0.28,1.146 -0.733,2.223 -1.346,3.202 -0.585,0.937 -1.342,1.902 -2.248,2.867 l -4.894,5.207 -5.552,-5.216 5.136,-5.465 c 0.596,-0.637 1.105,-1.311 1.513,-2.005 0.362,-0.617 0.593,-1.417 0.686,-2.38 0.1,-1.031 0.017,-2.34 -0.247,-3.892 -0.271,-1.595 -0.813,-3.626 -1.61,-6.039 l -0.954,-2.887 -0.795,0.846 L 33.803,-11.756 15.765,23.61 5.352,63.885 -1.565,62.097 6.099,32.455 -1.209,30.565 -3.865,40.837 c -0.529,2.047 -1.189,3.89 -1.964,5.477 -0.817,1.674 -1.867,3.04 -3.118,4.061 -1.283,1.046 -2.831,1.722 -4.598,2.008 -1.72,0.278 -3.748,0.122 -6.029,-0.467 -2.258,-0.585 -4.315,-1.444 -6.115,-2.554 -1.773,-1.091 -3.37,-2.313 -4.747,-3.632 -1.367,-1.311 -2.567,-2.686 -3.565,-4.09 -0.985,-1.385 -1.807,-2.687 -2.444,-3.87 -0.65,-1.211 -1.131,-2.226 -1.47,-3.103 -0.447,-1.156 -0.558,-1.518 -0.606,-1.703 l -0.243,-0.962 6.312,-3.261 0.561,1.15 c 0.67,1.374 1.431,2.838 2.261,4.35 0.804,1.468 1.749,2.876 2.809,4.185 1.039,1.284 2.27,2.45 3.658,3.463 1.35,0.984 2.943,1.718 4.737,2.182 1.328,0.343 2.433,0.439 3.287,0.285 0.811,-0.145 1.473,-0.459 2.026,-0.96 0.587,-0.531 1.082,-1.261 1.473,-2.169 0.436,-1.015 0.831,-2.202 1.174,-3.526 l 2.309,-8.931 -26.86,-6.945 1.942,-7.507 40.251,10.408 3.15,-6.175 1.839,-3.605 -15.703,-8.009 -1.013,1.986 c -0.256,0.5 -0.518,0.949 -0.783,1.339 -0.313,0.456 -0.663,0.826 -1.038,1.099 -0.465,0.338 -0.992,0.522 -1.562,0.546 -0.534,0.023 -1.116,-0.113 -1.709,-0.415 -0.711,-0.363 -1.393,-0.931 -2.027,-1.688 -0.579,-0.691 -1.118,-1.491 -1.602,-2.38 -0.477,-0.876 -0.893,-1.81 -1.237,-2.777 -0.345,-0.965 -0.614,-1.933 -0.801,-2.876 -0.192,-0.976 -0.278,-1.9 -0.253,-2.747 0.026,-0.941 0.21,-1.755 0.548,-2.419 0.353,-0.692 0.762,-1.193 1.248,-1.529 0.513,-0.356 1.092,-0.545 1.725,-0.561 0.536,0.005 1.139,0.102 1.763,0.341 0.508,0.195 1.083,0.455 1.706,0.773 l 2.236,1.14 6.918,-13.564 -15.79,-8.053 3.537,-6.936 37.047,18.895 z"
             style="fill:#138808;fill-opacity:1;fill-rule:nonzero;stroke:none"
             id="path32" />
        </g>
        <g
           id="g34"
           transform="translate(232.3136,155.0082)">
          <path
             d="m 0,0 -7.274,-16.057 -13.869,6.285 7.274,16.055 z m -28.609,20.806 -2.95,-6.509 10.599,-4.801 -7.274,-16.057 -2.035,0.922 c -0.519,0.235 -1.004,0.421 -1.441,0.555 -0.528,0.162 -1.033,0.232 -1.498,0.213 -0.575,-0.025 -1.103,-0.21 -1.563,-0.547 -0.441,-0.318 -0.803,-0.786 -1.076,-1.39 -0.33,-0.725 -0.508,-1.595 -0.532,-2.586 -0.021,-0.906 0.057,-1.868 0.233,-2.858 0.173,-0.978 0.431,-1.969 0.766,-2.942 0.332,-0.969 0.725,-1.893 1.168,-2.746 0.457,-0.882 0.967,-1.658 1.516,-2.306 0.61,-0.721 1.262,-1.242 1.939,-1.549 0.708,-0.32 1.342,-0.455 1.926,-0.415 0.624,0.04 1.196,0.255 1.699,0.637 0.434,0.33 0.827,0.789 1.168,1.369 0.282,0.482 0.568,1.043 0.85,1.665 l 1.036,2.287 13.869,-6.283 -7.315,-16.147 7.091,-3.212 L 7.092,-3.212 16.26,-6.609 2.546,-46.8 l 7.369,-2.514 13.714,40.19 6.405,-2.186 2.307,6.763 -20.224,6.901 z"
             style="fill:#138808;fill-opacity:1;fill-rule:nonzero;stroke:none"
             id="path36" />
        </g>
        <g
           id="g38"
           transform="translate(327.1744,135.5229)">
          <path
             d="m 0,0 -21.374,-3.193 0.839,-5.618 0.683,-0.259 c 1.313,-0.499 2.512,-1.104 3.564,-1.798 1.044,-0.688 1.951,-1.44 2.695,-2.235 0.737,-0.784 1.334,-1.597 1.778,-2.417 0.423,-0.783 0.692,-1.539 0.797,-2.244 0.058,-0.391 0.071,-0.888 0.037,-1.475 -0.033,-0.531 -0.165,-1.07 -0.396,-1.602 -0.216,-0.5 -0.553,-0.941 -1.027,-1.349 -0.431,-0.371 -1.088,-0.623 -1.952,-0.753 -1.314,-0.197 -2.61,0.015 -3.959,0.651 -1.404,0.658 -2.823,1.791 -4.218,3.367 -1.445,1.63 -2.876,3.762 -4.255,6.337 -1.392,2.597 -2.724,5.724 -3.959,9.294 l -0.411,1.187 -6.915,-2.431 0.372,-1.158 c 0.246,-0.764 0.576,-1.72 0.991,-2.867 0.419,-1.164 0.934,-2.433 1.529,-3.774 0.597,-1.343 1.295,-2.763 2.077,-4.22 0.786,-1.464 1.68,-2.914 2.659,-4.309 0.99,-1.412 2.084,-2.74 3.25,-3.947 1.198,-1.245 2.521,-2.318 3.929,-3.19 1.433,-0.889 2.993,-1.547 4.636,-1.956 1.004,-0.25 2.053,-0.375 3.136,-0.375 0.725,0 1.465,0.056 2.217,0.168 1.912,0.286 3.578,0.886 4.952,1.782 1.371,0.895 2.475,1.989 3.281,3.253 0.795,1.246 1.34,2.616 1.618,4.071 0.277,1.442 0.31,2.883 0.1,4.284 -0.209,1.405 -0.625,2.703 -1.234,3.858 -0.581,1.103 -1.224,2.093 -1.914,2.944 -0.488,0.602 -0.973,1.137 -1.448,1.6 l 8.973,1.34 z"
             style="fill:#138808;fill-opacity:1;fill-rule:nonzero;stroke:none"
             id="path40" />
        </g>
        <g
           id="g42"
           transform="translate(348.7926,124.2602)">
          <path
             d="m 0,0 c -0.89,0.013 -1.747,0.189 -2.55,0.526 -0.815,0.341 -1.599,0.867 -2.331,1.559 -0.537,0.511 -1.053,1.141 -1.538,1.879 0.732,0.598 1.369,1.259 1.906,1.971 0.752,1 1.329,2.075 1.716,3.196 0.39,1.128 0.592,2.299 0.602,3.478 0.009,1.163 -0.146,2.332 -0.462,3.477 -0.424,1.526 -1.09,3.034 -1.98,4.482 -0.496,0.806 -1.04,1.565 -1.626,2.27 L 6.199,26.293 11.389,7.577 C 11.056,6.828 10.644,6.109 10.158,5.435 9.592,4.645 8.927,3.912 8.184,3.257 7.445,2.606 6.616,2.028 5.723,1.539 4.83,1.053 3.883,0.67 2.902,0.398 1.907,0.122 0.928,-0.019 0,0 M 58.91,64.032 44.044,51.74 37.637,47.745 c -1.839,1.346 -3.202,2.676 -4.056,3.959 -0.461,0.695 -0.796,1.419 -0.999,2.154 -0.186,0.67 -0.202,1.333 -0.049,2.027 0.155,0.702 0.523,1.43 1.093,2.166 0.603,0.776 1.51,1.569 2.696,2.356 1.508,1.001 3.167,1.796 4.929,2.363 1.803,0.579 3.659,0.996 5.52,1.24 1.833,0.24 3.675,0.361 5.479,0.361 h 0.144 c 1.869,-0.006 3.641,-0.08 5.269,-0.221 0.424,-0.036 0.839,-0.076 1.247,-0.118 m 70.741,51.707 -7.152,-13.44 -15.561,8.282 7.154,13.44 z m 17.637,31.259 c -0.04,-1.012 -0.197,-2.021 -0.468,-3.002 v -0.001 c -0.275,-1 -0.661,-1.906 -1.149,-2.695 -0.467,-0.758 -1.059,-1.404 -1.762,-1.919 -0.708,-0.524 -1.561,-0.926 -2.536,-1.198 -0.713,-0.201 -1.518,-0.32 -2.399,-0.356 -0.139,0.937 -0.378,1.823 -0.713,2.646 -0.469,1.156 -1.095,2.205 -1.861,3.114 -0.765,0.911 -1.665,1.686 -2.676,2.305 -0.994,0.605 -2.077,1.072 -3.218,1.386 -1.455,0.402 -3.011,0.605 -4.627,0.605 -0.079,0 -0.159,0 -0.238,-0.001 -0.947,-0.011 -1.876,-0.088 -2.783,-0.23 l 3.434,12.468 18.725,-5.157 c 0.47,-0.67 0.877,-1.393 1.207,-2.155 0.387,-0.896 0.675,-1.842 0.855,-2.812 0.18,-0.977 0.25,-1.986 0.209,-2.998 m -26.668,-7.47 c 0.664,0.213 1.31,0.378 1.927,0.492 0.814,0.149 1.584,0.241 2.287,0.273 0.698,0.03 1.334,0.014 1.898,-0.054 0.566,-0.064 1.069,-0.157 1.496,-0.275 0.58,-0.16 1.141,-0.438 1.669,-0.826 0.514,-0.376 0.958,-0.883 1.325,-1.505 0.374,-0.636 0.64,-1.433 0.793,-2.369 0.157,-0.968 0.148,-2.113 -0.028,-3.402 l -0.171,-1.253 1.255,-0.156 c 2.147,-0.266 4.294,-0.319 6.387,-0.157 2.148,0.166 4.185,0.659 6.051,1.467 1.906,0.822 3.602,2.051 5.045,3.655 1.447,1.613 2.542,3.739 3.253,6.318 0.349,1.27 0.575,2.539 0.67,3.775 0.092,1.209 0.101,2.381 0.025,3.483 -0.077,1.116 -0.237,2.169 -0.476,3.131 -0.032,0.13 -0.065,0.258 -0.099,0.383 l 13.306,-3.664 2.068,7.506 -40.942,11.276 1.798,6.526 -6.889,1.895 -11.172,-40.569 -18.057,-33.924 -3.221,-3.765 -1.173,0.885 c -2.028,1.525 -3.63,2.887 -4.764,4.045 -1.101,1.125 -1.915,2.153 -2.421,3.058 -0.472,0.845 -0.737,1.634 -0.791,2.348 -0.061,0.805 -0.026,1.647 0.102,2.506 l 1.108,7.421 -7.536,1.124 -1.055,-7.07 c -0.195,-1.31 -0.267,-2.534 -0.216,-3.635 0.056,-1.155 0.297,-2.298 0.719,-3.4 0.42,-1.093 1.063,-2.198 1.912,-3.284 0.814,-1.041 1.898,-2.193 3.223,-3.427 1.303,-1.208 2.889,-2.563 4.717,-4.028 0.602,-0.482 1.242,-0.989 1.918,-1.519 L 69.87,73.303 65.548,69.647 c -2.265,0.428 -4.157,0.749 -5.916,1.005 -3.491,0.506 -6.878,0.732 -10.061,0.673 -3.217,-0.06 -6.323,-0.474 -9.229,-1.232 -2.944,-0.769 -5.75,-2.031 -8.345,-3.754 C 30,65.013 28.401,63.594 27.246,62.122 26.067,60.618 25.271,59.064 24.88,57.505 c -0.397,-1.577 -0.423,-3.176 -0.078,-4.751 0.336,-1.535 0.979,-3.026 1.913,-4.433 1.132,-1.704 2.677,-3.303 4.606,-4.77 L 29.39,42.269 24.701,40.27 c -2.366,1.856 -4.503,3.496 -6.354,4.877 -1.878,1.399 -3.59,2.592 -5.088,3.548 -1.53,0.973 -2.919,1.732 -4.127,2.254 C 7.868,51.496 6.637,51.84 5.471,51.971 4.304,52.101 3.135,52.047 1.999,51.809 0.916,51.58 -0.249,51.201 -1.463,50.683 l -6.575,-2.804 2.988,-7.009 6.903,2.944 c 0.795,0.34 1.602,0.586 2.4,0.731 0.701,0.126 1.531,0.069 2.47,-0.174 1.001,-0.26 2.202,-0.788 3.569,-1.571 1.405,-0.804 3.127,-2.012 5.116,-3.589 l 2.382,-1.889 -2.686,-1.144 -32.741,-9.08 -47.857,-7.153 1.057,-7.066 50.259,7.512 c 0.467,-0.42 0.865,-0.817 1.206,-1.205 0.547,-0.624 1.021,-1.238 1.409,-1.825 0.384,-0.579 0.697,-1.134 0.928,-1.651 0.238,-0.527 0.416,-1.007 0.531,-1.426 0.164,-0.591 0.212,-1.198 0.15,-1.859 -0.061,-0.635 -0.266,-1.277 -0.611,-1.909 -0.354,-0.647 -0.901,-1.286 -1.625,-1.897 -0.752,-0.632 -1.739,-1.212 -2.934,-1.723 l -1.162,-0.497 0.509,-1.156 c 0.869,-1.972 1.926,-3.845 3.144,-5.562 1.244,-1.756 2.713,-3.25 4.366,-4.44 1.687,-1.214 3.614,-2.039 5.727,-2.45 2.127,-0.416 4.514,-0.264 7.095,0.453 1.278,0.356 2.483,0.814 3.581,1.361 1.089,0.543 2.099,1.138 3.004,1.769 0.912,0.635 1.732,1.313 2.44,2.016 0.095,0.093 0.188,0.188 0.278,0.282 l 3.687,-13.301 7.505,2.079 -11.348,40.923 1.061,0.294 6.906,2.542 16.66,-39.063 7.161,3.055 -16.659,39.062 0.409,0.175 5.637,2.898 0.874,0.58 23.491,-35.377 6.486,4.307 -22.789,34.321 21.558,18.234 4.875,-5.762 -8.101,-6.852 c -1.617,-1.367 -2.989,-2.763 -4.08,-4.147 -1.153,-1.462 -1.929,-3.001 -2.305,-4.572 -0.386,-1.61 -0.323,-3.297 0.186,-5.014 0.494,-1.669 1.517,-3.429 3.039,-5.228 1.502,-1.777 3.17,-3.258 4.955,-4.402 1.754,-1.124 3.549,-2.032 5.332,-2.699 1.767,-0.662 3.527,-1.144 5.232,-1.436 1.669,-0.285 3.199,-0.46 4.549,-0.521 1.374,-0.06 2.497,-0.053 3.431,0.023 1.236,0.099 1.61,0.155 1.797,0.193 l 0.974,0.198 0.198,7.101 -1.278,0.007 c -1.522,0.009 -3.171,0.059 -4.904,0.149 -1.669,0.087 -3.348,0.328 -4.988,0.714 -1.607,0.378 -3.191,0.982 -4.707,1.791 -1.472,0.788 -2.825,1.906 -4.023,3.322 -0.884,1.044 -1.45,1.998 -1.684,2.838 -0.221,0.791 -0.225,1.524 -0.016,2.24 0.226,0.759 0.668,1.522 1.318,2.269 0.718,0.828 1.615,1.7 2.667,2.59 l 7.042,5.956 17.916,-21.182 5.92,5.008 -27.424,32.422 9.058,9.13 9.744,-8.335 C 88.687,64.575 88.21,63.984 87.802,63.443 87.313,62.797 86.95,62.175 86.721,61.591 86.454,60.903 86.37,60.236 86.472,59.61 c 0.113,-0.708 0.489,-1.34 1.117,-1.878 0.579,-0.497 1.328,-0.886 2.289,-1.192 0.862,-0.271 1.821,-0.47 2.847,-0.589 1.014,-0.119 2.065,-0.169 3.13,-0.144 1.078,0.022 2.126,0.122 3.113,0.297 1.015,0.18 1.938,0.433 2.742,0.752 0.924,0.368 1.649,0.855 2.154,1.449 0.56,0.653 0.827,1.36 0.793,2.112 -0.032,0.594 -0.195,1.173 -0.486,1.724 -0.262,0.491 -0.592,0.944 -0.978,1.343 -0.339,0.352 -0.648,0.648 -0.933,0.894 l -17.682,15.126 7.655,8.949 1.804,-1.363 0.022,0.141 30.613,-26.189 5.058,5.917 -31.614,27.047 5.164,9.701 15.561,-8.281 -1.048,-1.97 c -0.268,-0.503 -0.485,-0.976 -0.648,-1.408 -0.194,-0.515 -0.297,-1.012 -0.307,-1.479 -0.012,-0.572 0.139,-1.109 0.452,-1.605 0.295,-0.458 0.736,-0.845 1.313,-1.151 0.706,-0.375 1.563,-0.61 2.546,-0.695 0.892,-0.078 1.859,-0.061 2.869,0.05 0.986,0.11 1.99,0.305 2.982,0.576 0.99,0.271 1.938,0.605 2.816,0.992 0.91,0.401 1.716,0.86 2.397,1.366 0.759,0.56 1.321,1.179 1.67,1.836 0.36,0.674 0.541,1.314 0.538,1.898 -0.002,0.627 -0.18,1.211 -0.525,1.73 -0.301,0.457 -0.738,0.88 -1.294,1.255 -0.458,0.311 -0.999,0.632 -1.609,0.956 l -2.217,1.18 7.156,13.441 15.646,-8.328 3.66,6.87 -37.058,19.725 z"
             style="fill:#138808;fill-opacity:1;fill-rule:nonzero;stroke:none"
             id="path44" />
        </g>
        <g
           id="g46"
           transform="translate(108.7897,339.804)">
          <path
             d="M 0,0 C -0.921,1.159 -2.241,1.781 -3.962,1.866 -5.683,1.949 -7.068,1.45 -8.118,0.368 c -1.05,-1.083 -1.62,-2.542 -1.71,-4.375 l -0.403,-8.25 11.072,-0.541 0.406,8.308 C 1.337,-2.657 0.921,-1.16 0,0 m -16.426,-11.954 0.363,7.431 c 0.089,1.833 -0.289,3.308 -1.135,4.426 -0.846,1.116 -2.092,1.715 -3.736,1.795 -1.644,0.08 -2.952,-0.393 -3.923,-1.42 -0.97,-1.029 -1.5,-2.46 -1.589,-4.293 l -0.364,-7.431 z m 7.388,19.962 c 1.972,1.526 4.201,2.229 6.686,2.107 2.065,-0.101 3.866,-0.726 5.4,-1.877 C 4.583,7.088 5.741,5.476 6.521,3.405 7.302,1.334 7.624,-1.086 7.488,-3.856 l -0.855,-17.496 -40.042,1.959 0.81,16.558 c 0.135,2.771 0.712,5.157 1.731,7.159 1.017,2.004 2.355,3.493 4.013,4.468 1.658,0.974 3.481,1.413 5.47,1.316 2.257,-0.111 4.106,-0.896 5.548,-2.354 1.444,-1.458 2.467,-3.474 3.069,-6.044 0.514,2.672 1.757,4.772 3.73,6.298"
             style="fill:#ff9933;fill-opacity:1;fill-rule:nonzero;stroke:none"
             id="path48" />
        </g>
        <g
           id="g50"
           transform="translate(97.306,372.2955)">
          <path
             d="m 0,0 c 0.369,-1.451 1.125,-2.751 2.267,-3.902 1.143,-1.149 2.657,-1.972 4.545,-2.472 1.889,-0.497 3.631,-0.533 5.229,-0.106 1.597,0.427 2.915,1.178 3.952,2.258 1.037,1.08 1.74,2.318 2.109,3.716 0.379,1.434 0.384,2.877 0.014,4.328 -0.369,1.45 -1.134,2.753 -2.295,3.907 -1.16,1.155 -2.685,1.981 -4.573,2.48 C 9.36,10.707 7.627,10.74 6.047,10.309 4.469,9.877 3.16,9.122 2.122,8.043 1.086,6.963 0.378,5.706 -0.001,4.271 -0.37,2.874 -0.369,1.45 0,0 m -4.297,9.828 c 1.385,1.492 3.031,2.552 4.939,3.18 l -4.776,1.26 2.093,7.931 30.765,-8.119 -2.093,-7.931 -5.165,1.363 c 1.452,-1.556 2.449,-3.323 2.996,-5.304 0.546,-1.984 0.525,-4.088 -0.063,-6.316 -0.708,-2.681 -2.028,-4.948 -3.963,-6.801 -1.934,-1.852 -4.276,-3.112 -7.027,-3.779 -2.75,-0.668 -5.661,-0.597 -8.735,0.214 -3.072,0.812 -5.631,2.184 -7.675,4.117 -2.044,1.933 -3.441,4.18 -4.191,6.741 -0.749,2.561 -0.77,5.181 -0.063,7.864 0.588,2.227 1.575,4.087 2.958,5.58"
             style="fill:#ff9933;fill-opacity:1;fill-rule:nonzero;stroke:none"
             id="path52" />
        </g>
        <g
           id="g54"
           transform="translate(93.9803,418.5615)">
          <path
             d="M 0,0 38.948,-17.013 35.641,-24.582 -3.306,-7.569 Z"
             style="fill:#ff9933;fill-opacity:1;fill-rule:nonzero;stroke:none"
             id="path56" />
        </g>
        <g
           id="g58"
           transform="translate(116.3144,453.1174)">
          <path
             d="M 0,0 32.112,-10.837 13.755,17.652 19.156,24.584 41.56,-11.887 35.439,-19.743 -5.365,-6.886 Z"
             style="fill:#ff9933;fill-opacity:1;fill-rule:nonzero;stroke:none"
             id="path60" />
        </g>
        <g
           id="g62"
           transform="translate(155.5209,484.6657)">
          <path
             d="m 0,0 21.767,-23.208 -6.025,-5.651 -21.767,23.208 z m -13.534,3.212 c 0.057,1.365 0.584,2.517 1.581,3.452 1.026,0.962 2.222,1.427 3.589,1.398 1.367,-0.031 2.522,-0.549 3.465,-1.554 0.943,-1.005 1.386,-2.192 1.328,-3.557 -0.057,-1.367 -0.598,-2.53 -1.624,-3.492 -0.997,-0.936 -2.179,-1.389 -3.546,-1.358 -1.367,0.03 -2.522,0.549 -3.465,1.554 -0.943,1.005 -1.386,2.19 -1.328,3.557"
             style="fill:#ff9933;fill-opacity:1;fill-rule:nonzero;stroke:none"
             id="path64" />
        </g>
        <g
           id="g66"
           transform="translate(186.2798,506.718)">
          <path
             d="m 0,0 c 2.157,0.207 4.268,-0.222 6.33,-1.287 2.063,-1.066 3.899,-2.765 5.507,-5.098 l 10.626,-15.416 -6.752,-4.655 -9.975,14.47 c -1.412,2.049 -3.024,3.252 -4.835,3.608 -1.811,0.357 -3.633,-0.097 -5.466,-1.361 -1.832,-1.263 -2.913,-2.81 -3.24,-4.64 -0.328,-1.831 0.215,-3.77 1.628,-5.819 l 9.975,-14.47 -6.801,-4.688 -24.123,34.993 6.801,4.688 8.769,-12.721 c -0.121,1.964 0.28,3.808 1.2,5.536 0.92,1.727 2.297,3.223 4.13,4.486 C -4.233,-0.999 -2.157,-0.209 0,0"
             style="fill:#ff9933;fill-opacity:1;fill-rule:nonzero;stroke:none"
             id="path68" />
        </g>
        <g
           id="g70"
           transform="translate(216.2878,515.1135)">
          <path
             d="m 0,0 c -0.933,-1.172 -1.512,-2.559 -1.739,-4.163 -0.225,-1.605 0.032,-3.31 0.776,-5.116 0.743,-1.805 1.768,-3.216 3.073,-4.231 1.305,-1.016 2.701,-1.612 4.188,-1.786 1.486,-0.175 2.898,0.013 4.234,0.564 1.372,0.565 2.525,1.432 3.458,2.603 0.933,1.171 1.509,2.568 1.728,4.19 0.219,1.622 -0.043,3.336 -0.787,5.142 C 14.188,-0.991 13.167,0.41 11.87,1.408 10.572,2.406 9.179,2.992 7.692,3.167 6.205,3.341 4.776,3.146 3.404,2.581 2.067,2.031 0.933,1.17 0,0 M 5.237,9.361 C 7.263,9.159 9.102,8.488 10.755,7.347 l -1.881,4.568 7.584,3.122 12.114,-29.422 -7.584,-3.123 -2.034,4.939 c -0.362,-2.096 -1.168,-3.959 -2.417,-5.591 -1.25,-1.633 -2.94,-2.888 -5.07,-3.765 -2.565,-1.056 -5.169,-1.373 -7.814,-0.95 -2.645,0.422 -5.063,1.527 -7.257,3.317 -2.194,1.788 -3.895,4.151 -5.105,7.09 -1.21,2.938 -1.663,5.806 -1.357,8.603 0.306,2.797 1.253,5.267 2.841,7.412 1.587,2.144 3.663,3.744 6.228,4.8 2.13,0.877 4.208,1.215 6.234,1.014"
             style="fill:#ff9933;fill-opacity:1;fill-rule:nonzero;stroke:none"
             id="path72" />
        </g>
        <g
           id="g74"
           transform="translate(258.2986,535.1452)">
          <path
             d="M 0,0 C 1.349,1.398 3.034,2.323 5.054,2.773 L 6.852,-5.3 4.85,-5.746 c -2.401,-0.535 -4.081,-1.526 -5.039,-2.975 -0.959,-1.449 -1.116,-3.613 -0.476,-6.491 l 3.47,-15.585 -8.063,-1.794 -6.915,31.058 8.064,1.795 1.222,-5.494 C -2.311,-3.143 -1.35,-1.399 0,0"
             style="fill:#ff9933;fill-opacity:1;fill-rule:nonzero;stroke:none"
             id="path76" />
        </g>
        <g
           id="g78"
           transform="translate(302.4278,531.6253)">
          <path
             d="m 0,0 c -1.661,-1.586 -2.548,-3.91 -2.661,-6.971 -0.076,-2.066 0.239,-3.831 0.947,-5.294 0.708,-1.463 1.673,-2.572 2.896,-3.326 1.222,-0.754 2.575,-1.158 4.059,-1.213 1.443,-0.053 2.823,0.259 4.138,0.939 1.315,0.679 2.399,1.722 3.252,3.127 0.853,1.405 1.317,3.121 1.392,5.15 0.077,2.066 -0.249,3.831 -0.976,5.295 C 12.319,-0.83 11.334,0.279 10.092,1.035 8.85,1.789 7.487,2.194 6.005,2.249 3.663,2.336 1.661,1.586 0,0 m 14.672,6.756 c 2.487,-1.434 4.426,-3.411 5.818,-5.934 1.392,-2.522 2.027,-5.411 1.907,-8.663 -0.12,-3.252 -0.968,-6.095 -2.543,-8.527 -1.576,-2.433 -3.666,-4.281 -6.272,-5.543 -2.608,-1.264 -5.472,-1.838 -8.594,-1.723 -3.084,0.115 -5.869,0.897 -8.355,2.35 -2.487,1.451 -4.416,3.448 -5.787,5.99 -1.371,2.541 -1.997,5.438 -1.877,8.691 0.12,3.251 0.967,6.085 2.543,8.498 1.573,2.413 3.653,4.241 6.241,5.487 2.586,1.245 5.44,1.81 8.563,1.695 3.082,-0.114 5.868,-0.888 8.356,-2.321"
             style="fill:#ff9933;fill-opacity:1;fill-rule:nonzero;stroke:none"
             id="path80" />
        </g>
        <g
           id="g82"
           transform="translate(348.6479,528.4269)">
          <path
             d="m 0,0 -5.063,0.971 -4.749,-24.762 -8.055,1.545 4.749,24.762 -3.451,0.663 1.244,6.486 3.451,-0.662 0.336,1.749 c 0.721,3.759 2.264,6.31 4.629,7.65 2.364,1.34 5.733,1.591 10.106,0.752 L 1.92,12.498 C 0.232,12.822 -1.018,12.73 -1.831,12.223 -2.644,11.716 -3.195,10.71 -3.483,9.207 L -3.819,7.458 1.244,6.487 Z"
             style="fill:#ff9933;fill-opacity:1;fill-rule:nonzero;stroke:none"
             id="path84" />
        </g>
        <g
           id="g86"
           transform="translate(392.3914,491.1959)">
          <path
             d="m 0,0 c -1.855,-1.166 -4.016,-1.788 -6.485,-1.866 -2.469,-0.079 -5.032,0.499 -7.689,1.733 -4.074,1.89 -6.92,4.34 -8.537,7.349 -1.618,3.009 -1.644,6.198 -0.081,9.567 l 7.971,-3.699 c -0.584,-1.628 -0.596,-3.07 -0.036,-4.321 0.56,-1.252 1.691,-2.272 3.391,-3.062 1.7,-0.789 3.248,-0.98 4.643,-0.572 1.395,0.408 2.415,1.307 3.06,2.696 0.515,1.111 0.589,2.174 0.221,3.19 -0.368,1.015 -0.969,1.948 -1.801,2.799 -0.833,0.85 -2.058,1.946 -3.674,3.287 -2.099,1.693 -3.747,3.197 -4.945,4.512 -1.198,1.316 -2.018,2.889 -2.46,4.72 -0.442,1.829 -0.131,3.891 0.933,6.184 1.015,2.187 2.464,3.847 4.345,4.979 1.882,1.132 4.019,1.681 6.415,1.645 2.394,-0.034 4.849,-0.636 7.365,-1.803 3.861,-1.792 6.562,-4.091 8.103,-6.895 1.54,-2.804 1.602,-6.01 0.187,-9.616 l -8.184,3.798 c 0.503,1.454 0.483,2.804 -0.059,4.048 -0.543,1.243 -1.539,2.202 -2.991,2.877 -1.524,0.706 -2.929,0.905 -4.213,0.593 -1.286,-0.311 -2.283,-1.231 -2.993,-2.758 -0.531,-1.147 -0.617,-2.236 -0.257,-3.268 0.361,-1.033 0.965,-1.979 1.815,-2.838 0.85,-0.859 2.074,-1.933 3.671,-3.223 C -0.186,18.363 1.464,16.86 2.661,15.544 3.859,14.229 4.67,12.659 5.094,10.837 5.519,9.015 5.199,6.958 4.135,4.666 3.233,2.72 1.854,1.166 0,0"
             style="fill:#ff9933;fill-opacity:1;fill-rule:nonzero;stroke:none"
             id="path88" />
        </g>
        <g
           id="g90"
           transform="translate(415.3445,477.4351)">
          <path
             d="m 0,0 -3.791,-5.618 -4.322,2.916 c -2.752,1.857 -4.455,3.907 -5.109,6.149 -0.654,2.244 -0.017,4.793 1.911,7.65 l 8.706,12.902 -2.866,1.933 3.695,5.475 2.865,-1.933 4.402,6.522 6.846,-4.62 L 7.936,24.854 13.958,20.79 10.263,15.316 4.242,19.379 -4.464,6.476 C -5.042,5.619 -5.245,4.866 -5.07,4.218 -4.895,3.568 -4.29,2.895 -3.254,2.196 Z"
             style="fill:#ff9933;fill-opacity:1;fill-rule:nonzero;stroke:none"
             id="path92" />
        </g>
        <g
           id="g94"
           transform="translate(420.9143,474.2442)">
          <path
             d="M 0,0 C 1.253,0.104 2.376,-0.256 3.368,-1.079 4.389,-1.927 4.972,-2.983 5.116,-4.247 5.259,-5.51 4.916,-6.644 4.085,-7.645 3.253,-8.647 2.202,-9.194 0.934,-9.285 c -1.269,-0.092 -2.414,0.287 -3.435,1.135 -0.992,0.823 -1.553,1.86 -1.681,3.112 -0.129,1.251 0.222,2.377 1.054,3.379 C -2.297,-0.657 -1.254,-0.104 0,0"
             style="fill:#ff9933;fill-opacity:1;fill-rule:nonzero;stroke:none"
             id="path96" />
        </g>
        <g
           id="g98"
           transform="translate(449.0494,443.7657)">
          <path
             d="M 0,0 8.205,-10.242 3.408,-14.084 -9.96,2.605 21.327,27.669 26.492,21.222 Z"
             style="fill:#ff9933;fill-opacity:1;fill-rule:nonzero;stroke:none"
             id="path100" />
        </g>
        <g
           id="g102"
           transform="translate(479.7339,429.0815)">
          <path
             d="m 0,0 c -2.215,0.609 -4.664,0.175 -7.347,-1.301 -1.812,-0.997 -3.163,-2.175 -4.054,-3.534 -0.891,-1.359 -1.346,-2.757 -1.364,-4.194 -0.019,-1.436 0.33,-2.804 1.046,-4.105 0.696,-1.266 1.674,-2.289 2.932,-3.067 1.259,-0.779 2.71,-1.173 4.355,-1.182 1.643,-0.008 3.354,0.474 5.132,1.453 1.812,0.997 3.158,2.183 4.04,3.559 0.882,1.378 1.326,2.792 1.336,4.246 0.008,1.453 -0.345,2.831 -1.06,4.13 C 3.887,-1.941 2.214,-0.61 0,0 m 13.337,-9.112 c 0.049,-2.87 -0.65,-5.55 -2.098,-8.041 -1.449,-2.49 -3.599,-4.52 -6.45,-6.089 -2.852,-1.57 -5.726,-2.303 -8.621,-2.202 -2.897,0.1 -5.557,0.944 -7.981,2.53 -2.424,1.587 -4.389,3.748 -5.894,6.486 -1.488,2.703 -2.248,5.495 -2.28,8.375 -0.034,2.879 0.688,5.559 2.163,8.042 1.474,2.483 3.638,4.509 6.489,6.078 2.851,1.568 5.717,2.298 8.597,2.188 2.879,-0.11 5.516,-0.954 7.915,-2.533 2.398,-1.578 4.349,-3.736 5.856,-6.473 1.486,-2.703 2.254,-5.49 2.304,-8.361"
             style="fill:#ff9933;fill-opacity:1;fill-rule:nonzero;stroke:none"
             id="path104" />
        </g>
        <g
           id="g106"
           transform="translate(512.144,372.4255)">
          <path
             d="m 0,0 -30.437,-9.272 -2.408,7.901 4.615,1.407 c -1.909,0.48 -3.545,1.421 -4.912,2.82 -1.368,1.401 -2.381,3.185 -3.041,5.351 -0.695,2.279 -0.815,4.477 -0.359,6.596 0.455,2.119 1.503,4 3.144,5.643 1.64,1.643 3.816,2.877 6.527,3.703 l 17.856,5.441 2.39,-7.846 -16.757,-5.105 c -2.381,-0.725 -4.025,-1.9 -4.93,-3.524 -0.907,-1.622 -1.036,-3.499 -0.387,-5.629 0.649,-2.129 1.804,-3.624 3.468,-4.486 1.663,-0.86 3.685,-0.929 6.067,-0.202 l 16.756,5.105 z"
             style="fill:#ff9933;fill-opacity:1;fill-rule:nonzero;stroke:none"
             id="path108" />
        </g>
        <g
           id="g110"
           transform="translate(525.7605,360.4554)">
          <path
             d="M 0,0 C 1.087,-0.829 1.73,-1.919 1.926,-3.272 2.129,-4.664 1.826,-5.911 1.02,-7.015 0.212,-8.119 -0.873,-8.77 -2.237,-8.969 c -1.364,-0.198 -2.591,0.118 -3.678,0.946 -1.088,0.829 -1.732,1.938 -1.935,3.329 -0.196,1.355 0.108,2.582 0.916,3.686 0.806,1.104 1.892,1.755 3.256,1.953 C -2.314,1.144 -1.088,0.829 0,0 m -10.377,-9.264 -31.488,-4.576 -1.188,8.174 31.487,4.577 z"
             style="fill:#ff9933;fill-opacity:1;fill-rule:nonzero;stroke:none"
             id="path112" />
        </g>
        <g
           id="g114"
           transform="translate(514.8479,318.0718)">
          <path
             d="m 0,0 c -1.819,-2.41 -4.315,-3.721 -7.49,-3.929 l -0.137,8.434 c 2.675,0.278 3.989,1.979 3.938,5.103 -0.025,1.562 -0.351,2.768 -0.977,3.617 -0.628,0.849 -1.438,1.265 -2.433,1.25 -0.843,-0.014 -1.508,-0.337 -1.995,-0.97 -0.488,-0.632 -0.868,-1.41 -1.14,-2.332 -0.272,-0.923 -0.586,-2.247 -0.941,-3.972 -0.459,-2.388 -0.954,-4.36 -1.483,-5.912 -0.531,-1.55 -1.389,-2.883 -2.578,-3.998 -1.188,-1.11 -2.835,-1.685 -4.941,-1.721 -1.914,-0.03 -3.608,0.509 -5.081,1.617 -1.474,1.111 -2.638,2.654 -3.493,4.632 -0.855,1.979 -1.303,4.218 -1.344,6.716 -0.063,3.906 0.776,7.103 2.516,9.591 1.74,2.49 4.274,3.878 7.601,4.167 l 0.136,-8.435 c -1.299,-0.177 -2.286,-0.72 -2.96,-1.631 -0.674,-0.908 -0.999,-2.124 -0.975,-3.648 0.025,-1.523 0.379,-2.747 1.065,-3.673 0.684,-0.926 1.545,-1.382 2.578,-1.366 0.842,0.014 1.517,0.338 2.024,0.972 0.506,0.633 0.896,1.42 1.168,2.362 0.271,0.941 0.585,2.294 0.939,4.058 0.459,2.39 0.944,4.342 1.456,5.853 0.511,1.512 1.342,2.825 2.493,3.938 1.149,1.112 2.719,1.684 4.711,1.716 1.76,0.028 3.396,-0.473 4.907,-1.503 1.51,-1.03 2.721,-2.553 3.635,-4.569 C 2.112,14.35 2.592,11.956 2.637,9.183 2.697,5.473 1.817,2.413 0,0"
             style="fill:#ff9933;fill-opacity:1;fill-rule:nonzero;stroke:none"
             id="path116" />
        </g>
        <g
           id="g118"
           transform="translate(64.364,72.6923)">
          <path
             d="m 0,0 v -4.085 h -11.227 v -6.921 h 8.565 v -4.084 h -8.565 V -26.4 h -5.439 V 0 Z"
             style="fill:#138808;fill-opacity:1;fill-rule:nonzero;stroke:none"
             id="path120" />
        </g>
        <g
           id="g122"
           transform="translate(76.6897,66.4897)">
          <path
             d="m 0,0 c 1.067,0.706 2.282,1.059 3.646,1.059 v -5.446 h -1.35 c -1.621,0 -2.843,-0.397 -3.665,-1.192 -0.824,-0.795 -1.235,-2.163 -1.235,-4.104 v -10.514 h -5.44 V 0.757 h 5.44 V -2.951 C -1.936,-1.689 -1.068,-0.706 0,0"
             style="fill:#138808;fill-opacity:1;fill-rule:nonzero;stroke:none"
             id="path124" />
        </g>
        <g
           id="g126"
           transform="translate(89.826,61.4212)">
          <path
             d="m 0,0 c -1.055,-1.085 -1.582,-2.635 -1.582,-4.653 0,-1.361 0.251,-2.514 0.752,-3.459 0.502,-0.946 1.164,-1.653 1.987,-2.119 0.823,-0.467 1.723,-0.699 2.701,-0.699 0.951,0 1.851,0.239 2.7,0.718 0.849,0.479 1.537,1.191 2.065,2.137 0.526,0.946 0.79,2.086 0.79,3.422 0,1.363 -0.257,2.516 -0.771,3.461 C 8.127,-0.246 7.452,0.46 6.616,0.928 5.78,1.393 4.874,1.627 3.896,1.627 2.353,1.627 1.054,1.083 0,0 m 9.491,4.803 c 1.671,-0.882 2.995,-2.137 3.973,-3.762 0.977,-1.627 1.466,-3.512 1.466,-5.655 0,-2.144 -0.489,-4.035 -1.466,-5.673 -0.978,-1.639 -2.309,-2.907 -3.993,-3.802 -1.685,-0.895 -3.556,-1.342 -5.613,-1.342 -2.032,0 -3.884,0.447 -5.556,1.342 -1.672,0.895 -2.989,2.163 -3.954,3.802 -0.964,1.638 -1.447,3.529 -1.447,5.673 0,2.143 0.489,4.028 1.466,5.655 0.978,1.625 2.302,2.88 3.974,3.762 1.671,0.882 3.536,1.324 5.594,1.324 2.032,0 3.883,-0.442 5.556,-1.324"
             style="fill:#138808;fill-opacity:1;fill-rule:nonzero;stroke:none"
             id="path128" />
        </g>
        <g
           id="g130"
           transform="translate(142.0429,65.2038)">
          <path
             d="m 0,0 c 1.555,-1.564 2.334,-3.758 2.334,-6.581 v -12.33 h -5.401 v 11.573 c 0,1.639 -0.425,2.893 -1.274,3.763 -0.848,0.87 -2.006,1.305 -3.472,1.305 -1.466,0 -2.63,-0.435 -3.491,-1.305 -0.862,-0.87 -1.293,-2.124 -1.293,-3.763 v -11.573 h -5.4 v 11.573 c 0,1.639 -0.425,2.893 -1.273,3.763 -0.849,0.87 -2.007,1.305 -3.472,1.305 -1.467,0 -2.63,-0.435 -3.492,-1.305 -0.862,-0.87 -1.292,-2.124 -1.292,-3.763 v -11.573 h -5.44 V 2.042 h 5.44 v -3.139 c 0.668,1.109 1.575,1.96 2.719,2.553 1.145,0.592 2.45,0.889 3.916,0.889 1.621,0 3.067,-0.365 4.34,-1.097 1.273,-0.731 2.257,-1.777 2.952,-3.139 0.745,1.311 1.768,2.345 3.067,3.102 1.298,0.756 2.758,1.134 4.378,1.134 C -3.607,2.345 -1.557,1.564 0,0"
             style="fill:#138808;fill-opacity:1;fill-rule:nonzero;stroke:none"
             id="path132" />
        </g>
        <g
           id="g134"
           transform="translate(177.2834,52.7973)">
          <path
             d="m 0,0 c 1.568,1.639 2.354,3.859 2.354,6.658 0,2.798 -0.786,5.017 -2.354,6.657 -1.569,1.637 -3.768,2.458 -6.597,2.458 H -10.3 V -2.458 h 3.703 C -3.768,-2.458 -1.569,-1.639 0,0 M 6.057,-0.283 C 4.848,-2.263 3.151,-3.795 0.964,-4.878 -1.222,-5.963 -3.742,-6.505 -6.597,-6.505 h -9.143 v 26.4 h 9.143 c 2.855,0 5.375,-0.549 7.561,-1.644 C 3.151,17.153 4.848,15.609 6.057,13.617 7.265,11.624 7.87,9.305 7.87,6.658 7.87,4.01 7.265,1.696 6.057,-0.283"
             style="fill:#138808;fill-opacity:1;fill-rule:nonzero;stroke:none"
             id="path136" />
        </g>
        <g
           id="g138"
           transform="translate(196.361,62.2161)">
          <path
             d="m 0,0 c -0.862,-0.48 -1.562,-1.179 -2.103,-2.1 -0.539,-0.921 -0.809,-2.023 -0.809,-3.309 0,-1.286 0.27,-2.402 0.809,-3.348 0.541,-0.945 1.241,-1.658 2.103,-2.136 0.862,-0.479 1.768,-0.719 2.72,-0.719 0.977,0 1.896,0.24 2.758,0.719 0.862,0.478 1.563,1.184 2.103,2.117 0.54,0.933 0.81,2.043 0.81,3.329 0,1.287 -0.27,2.395 -0.81,3.329 C 7.041,-1.186 6.34,-0.48 5.478,0 4.616,0.479 3.697,0.718 2.72,0.718 1.768,0.718 0.862,0.479 0,0 m 5.536,4.387 c 1.183,-0.63 2.135,-1.5 2.855,-2.61 V 5.03 h 5.401 V -15.924 H 8.391 v 3.518 c -0.746,-1.185 -1.704,-2.118 -2.874,-2.799 -1.171,-0.68 -2.514,-1.021 -4.031,-1.021 -1.827,0 -3.492,0.46 -4.996,1.38 -1.505,0.921 -2.701,2.2 -3.589,3.839 -0.887,1.639 -1.331,3.505 -1.331,5.598 0,2.093 0.444,3.952 1.331,5.579 0.888,1.626 2.084,2.893 3.589,3.801 1.504,0.907 3.169,1.361 4.996,1.361 1.517,0 2.867,-0.316 4.05,-0.945"
             style="fill:#138808;fill-opacity:1;fill-rule:nonzero;stroke:none"
             id="path140" />
        </g>
        <g
           id="g142"
           transform="translate(223.9831,66.4897)">
          <path
             d="m 0,0 c 1.067,0.706 2.282,1.059 3.646,1.059 v -5.446 h -1.35 c -1.621,0 -2.843,-0.397 -3.665,-1.192 -0.824,-0.795 -1.235,-2.163 -1.235,-4.104 v -10.514 h -5.44 V 0.757 h 5.44 V -2.951 C -1.936,-1.689 -1.068,-0.706 0,0"
             style="fill:#138808;fill-opacity:1;fill-rule:nonzero;stroke:none"
             id="path144" />
        </g>
        <g
           id="g146"
           transform="translate(242.0189,56.6565)">
          <path
             d="M 0,0 9.491,-10.364 H 2.237 l -7.329,8.737 v -8.737 h -5.44 v 27.989 h 5.44 v -16 l 7.214,8.965 h 7.369 z"
             style="fill:#138808;fill-opacity:1;fill-rule:nonzero;stroke:none"
             id="path148" />
        </g>
        <g
           id="g150"
           transform="translate(270.9721,66.5089)">
          <path
             d="m 0,0 c 1.248,-0.694 2.231,-1.715 2.951,-3.064 0.72,-1.349 1.08,-2.957 1.08,-4.823 v -12.329 h -5.4 v 11.573 c 0,1.639 -0.424,2.893 -1.273,3.763 -0.849,0.87 -2.006,1.305 -3.472,1.305 -1.467,0 -2.63,-0.435 -3.492,-1.305 -0.862,-0.87 -1.292,-2.124 -1.292,-3.763 v -11.573 h -5.44 V 0.737 h 5.44 v -3.139 c 0.668,1.109 1.575,1.96 2.719,2.552 1.145,0.593 2.45,0.89 3.916,0.89 C -2.668,1.04 -1.248,0.694 0,0"
             style="fill:#138808;fill-opacity:1;fill-rule:nonzero;stroke:none"
             id="path152" />
        </g>
        <g
           id="g154"
           transform="translate(294.7563,58.4718)">
          <path
             d="M 0,0 C -0.077,1.386 -0.599,2.495 -1.563,3.328 -2.527,4.16 -3.717,4.576 -5.131,4.576 -6.443,4.576 -7.556,4.16 -8.469,3.328 -9.382,2.495 -9.928,1.386 -10.108,0 Z m 5.478,-3.442 h -15.586 c 0.128,-1.362 0.643,-2.458 1.543,-3.291 0.9,-0.832 2.045,-1.248 3.434,-1.248 1.08,0 1.941,0.201 2.584,0.605 0.643,0.403 1.171,0.959 1.583,1.665 H 4.9 c -0.618,-1.992 -1.814,-3.619 -3.589,-4.88 -1.774,-1.261 -3.922,-1.891 -6.442,-1.891 -2.033,0 -3.845,0.448 -5.44,1.342 -1.595,0.895 -2.842,2.156 -3.742,3.783 -0.901,1.626 -1.351,3.524 -1.351,5.692 0,2.168 0.45,4.06 1.351,5.673 0.9,1.615 2.153,2.862 3.762,3.745 1.606,0.882 3.439,1.324 5.497,1.324 2.057,0 3.89,-0.428 5.497,-1.286 1.608,-0.858 2.874,-2.074 3.801,-3.65 0.926,-1.576 1.388,-3.423 1.388,-5.54 0,-0.732 -0.051,-1.414 -0.154,-2.043"
             style="fill:#138808;fill-opacity:1;fill-rule:nonzero;stroke:none"
             id="path156" />
        </g>
        <g
           id="g158"
           transform="translate(318.3271,65.7141)">
          <path
             d="m 0,0 c 1.569,-1.223 2.405,-2.881 2.508,-4.973 h -5.555 c -0.155,1.764 -1.261,2.647 -3.318,2.647 -1.029,0 -1.827,-0.202 -2.392,-0.604 -0.566,-0.405 -0.849,-0.935 -0.849,-1.59 0,-0.554 0.206,-0.996 0.618,-1.323 0.411,-0.328 0.919,-0.587 1.523,-0.775 0.604,-0.189 1.472,-0.411 2.604,-0.663 1.569,-0.328 2.861,-0.674 3.877,-1.039 1.016,-0.367 1.884,-0.947 2.604,-1.74 0.721,-0.795 1.081,-1.885 1.081,-3.273 0,-1.261 -0.373,-2.369 -1.119,-3.328 -0.746,-0.958 -1.775,-1.709 -3.086,-2.25 -1.312,-0.542 -2.792,-0.813 -4.437,-0.813 -2.572,0 -4.668,0.586 -6.288,1.758 -1.621,1.174 -2.508,2.856 -2.662,5.049 h 5.555 c 0.103,-0.856 0.45,-1.511 1.042,-1.966 0.591,-0.454 1.388,-0.681 2.392,-0.681 1.002,0 1.813,0.22 2.43,0.662 0.618,0.441 0.926,1.003 0.926,1.683 0,0.554 -0.206,1.003 -0.618,1.343 -0.411,0.341 -0.925,0.605 -1.543,0.794 -0.617,0.19 -1.504,0.41 -2.661,0.662 -1.569,0.328 -2.849,0.667 -3.839,1.022 -0.99,0.353 -1.846,0.914 -2.565,1.682 -0.721,0.769 -1.08,1.809 -1.08,3.121 0,1.16 0.346,2.231 1.041,3.215 0.695,0.983 1.71,1.764 3.048,2.344 1.337,0.58 2.918,0.87 4.745,0.87 C -3.575,1.834 -1.569,1.223 0,0"
             style="fill:#138808;fill-opacity:1;fill-rule:nonzero;stroke:none"
             id="path160" />
        </g>
        <g
           id="g162"
           transform="translate(339.3137,65.7141)">
          <path
             d="m 0,0 c 1.569,-1.223 2.405,-2.881 2.508,-4.973 h -5.555 c -0.155,1.764 -1.261,2.647 -3.318,2.647 -1.029,0 -1.827,-0.202 -2.392,-0.604 -0.566,-0.405 -0.849,-0.935 -0.849,-1.59 0,-0.554 0.206,-0.996 0.618,-1.323 0.411,-0.328 0.919,-0.587 1.523,-0.775 0.604,-0.189 1.472,-0.411 2.604,-0.663 1.569,-0.328 2.861,-0.674 3.877,-1.039 1.016,-0.367 1.884,-0.947 2.604,-1.74 0.721,-0.795 1.081,-1.885 1.081,-3.273 0,-1.261 -0.373,-2.369 -1.119,-3.328 -0.746,-0.958 -1.775,-1.709 -3.086,-2.25 -1.312,-0.542 -2.792,-0.813 -4.437,-0.813 -2.572,0 -4.668,0.586 -6.288,1.758 -1.621,1.174 -2.508,2.856 -2.662,5.049 h 5.555 c 0.103,-0.856 0.45,-1.511 1.042,-1.966 0.591,-0.454 1.388,-0.681 2.392,-0.681 1.002,0 1.813,0.22 2.43,0.662 0.618,0.441 0.926,1.003 0.926,1.683 0,0.554 -0.206,1.003 -0.618,1.343 -0.411,0.341 -0.925,0.605 -1.543,0.794 -0.617,0.19 -1.504,0.41 -2.661,0.662 -1.569,0.328 -2.849,0.667 -3.839,1.022 -0.99,0.353 -1.846,0.914 -2.565,1.682 -0.721,0.769 -1.08,1.809 -1.08,3.121 0,1.16 0.346,2.231 1.041,3.215 0.695,0.983 1.71,1.764 3.048,2.344 1.337,0.58 2.918,0.87 4.745,0.87 C -3.575,1.834 -1.569,1.223 0,0"
             style="fill:#138808;fill-opacity:1;fill-rule:nonzero;stroke:none"
             id="path164" />
        </g>
        <g
           id="g166"
           transform="translate(363.5794,72.6923)">
          <path
             d="m 0,0 v -16.263 c 0,-1.815 0.469,-3.19 1.408,-4.123 0.939,-0.933 2.282,-1.4 4.032,-1.4 1.748,0 3.098,0.467 4.051,1.4 0.951,0.933 1.427,2.308 1.427,4.123 V 0 h 5.401 v -16.263 c 0,-2.245 -0.508,-4.149 -1.524,-5.711 -1.016,-1.564 -2.353,-2.736 -4.012,-3.517 -1.659,-0.783 -3.479,-1.174 -5.459,-1.174 -1.955,0 -3.749,0.391 -5.382,1.174 -1.634,0.781 -2.939,1.953 -3.915,3.517 -0.979,1.562 -1.467,3.466 -1.467,5.711 L -5.44,0 Z"
             style="fill:#138808;fill-opacity:1;fill-rule:nonzero;stroke:none"
             id="path168" />
        </g>
        <g
           id="g170"
           transform="translate(401.9076,66.5089)">
          <path
             d="m 0,0 c 1.248,-0.694 2.231,-1.715 2.951,-3.064 0.72,-1.349 1.08,-2.957 1.08,-4.823 v -12.329 h -5.4 v 11.573 c 0,1.639 -0.424,2.893 -1.273,3.763 -0.849,0.87 -2.006,1.305 -3.472,1.305 -1.467,0 -2.63,-0.435 -3.492,-1.305 -0.862,-0.87 -1.292,-2.124 -1.292,-3.763 v -11.573 h -5.44 V 0.737 h 5.44 v -3.139 c 0.668,1.109 1.575,1.96 2.719,2.552 1.145,0.593 2.45,0.89 3.916,0.89 C -2.668,1.04 -1.248,0.694 0,0"
             style="fill:#138808;fill-opacity:1;fill-rule:nonzero;stroke:none"
             id="path172" />
        </g>
        <g
           id="g174"
           transform="translate(422.4119,50.7549)">
          <path
             d="m 0,0 v -4.462 h -3.433 c -2.187,0 -3.871,0.491 -5.054,1.474 -1.183,0.984 -1.774,2.61 -1.774,4.88 v 10.249 h -2.277 v 4.35 h 2.277 v 5.182 h 5.439 v -5.182 h 4.784 v -4.35 H -4.822 V 1.892 c 0,-0.681 0.167,-1.167 0.501,-1.457 C -3.986,0.145 -3.408,0 -2.584,0 Z"
             style="fill:#138808;fill-opacity:1;fill-rule:nonzero;stroke:none"
             id="path176" />
        </g>
        <g
           id="g178"
           transform="translate(432.2889,61.4212)">
          <path
             d="m 0,0 c -1.055,-1.085 -1.582,-2.635 -1.582,-4.653 0,-1.361 0.251,-2.514 0.752,-3.459 0.502,-0.946 1.164,-1.653 1.987,-2.119 0.823,-0.467 1.723,-0.699 2.701,-0.699 0.951,0 1.851,0.239 2.7,0.718 0.849,0.479 1.537,1.191 2.065,2.137 0.526,0.946 0.79,2.086 0.79,3.422 0,1.363 -0.257,2.516 -0.771,3.461 C 8.127,-0.246 7.452,0.46 6.616,0.928 5.78,1.393 4.874,1.627 3.896,1.627 2.353,1.627 1.054,1.083 0,0 m 9.491,4.803 c 1.671,-0.882 2.996,-2.137 3.973,-3.762 0.977,-1.627 1.466,-3.512 1.466,-5.655 0,-2.144 -0.489,-4.035 -1.466,-5.673 -0.977,-1.639 -2.309,-2.907 -3.993,-3.802 -1.685,-0.895 -3.556,-1.342 -5.613,-1.342 -2.032,0 -3.884,0.447 -5.556,1.342 -1.672,0.895 -2.989,2.163 -3.954,3.802 -0.964,1.638 -1.447,3.529 -1.447,5.673 0,2.143 0.489,4.028 1.466,5.655 0.978,1.625 2.302,2.88 3.974,3.762 1.671,0.882 3.536,1.324 5.594,1.324 2.032,0 3.883,-0.442 5.556,-1.324"
             style="fill:#138808;fill-opacity:1;fill-rule:nonzero;stroke:none"
             id="path180" />
        </g>
        <g
           id="g182"
           transform="translate(468.5521,50.339)">
          <path
             d="M 0,0 H 8.642 V -4.047 H -5.44 v 26.4 H 0 Z"
             style="fill:#138808;fill-opacity:1;fill-rule:nonzero;stroke:none"
             id="path184" />
        </g>
        <path
           d="m 486.298,46.292 h -5.44 v 20.954 h 5.44 z m -5.054,28.595 c 0.643,0.629 1.414,0.945 2.314,0.945 0.927,0 1.71,-0.316 2.354,-0.945 0.642,-0.631 0.965,-1.4 0.965,-2.308 0,-0.907 -0.323,-1.677 -0.965,-2.307 -0.644,-0.63 -1.427,-0.945 -2.354,-0.945 -0.9,0 -1.671,0.315 -2.314,0.945 -0.643,0.63 -0.965,1.4 -0.965,2.307 0,0.908 0.322,1.677 0.965,2.308"
           style="fill:#138808;fill-opacity:1;fill-rule:nonzero;stroke:none"
           id="path186" />
        <g
           id="g188"
           transform="translate(499.0087,62.2161)">
          <path
             d="m 0,0 c -0.862,-0.48 -1.562,-1.179 -2.103,-2.1 -0.539,-0.921 -0.809,-2.023 -0.809,-3.309 0,-1.286 0.27,-2.402 0.809,-3.348 0.541,-0.945 1.241,-1.658 2.103,-2.136 0.862,-0.479 1.768,-0.719 2.72,-0.719 0.977,0 1.896,0.24 2.759,0.719 0.86,0.478 1.562,1.184 2.103,2.117 0.538,0.933 0.809,2.043 0.809,3.329 0,1.287 -0.271,2.395 -0.809,3.329 C 7.041,-1.186 6.339,-0.48 5.479,0 4.616,0.479 3.697,0.718 2.72,0.718 1.768,0.718 0.862,0.479 0,0 M 5.536,4.387 C 6.72,3.757 7.67,2.887 8.391,1.777 V 5.03 h 5.401 v -21.105 c 0,-1.942 -0.392,-3.682 -1.176,-5.219 -0.785,-1.538 -1.967,-2.756 -3.55,-3.65 -1.582,-0.895 -3.53,-1.344 -5.844,-1.344 -3.061,0 -5.55,0.662 -7.466,1.987 -1.916,1.324 -3.002,3.209 -3.26,5.654 h 5.325 c 0.334,-0.932 0.977,-1.669 1.929,-2.212 0.95,-0.542 2.108,-0.813 3.472,-0.813 1.517,0 2.758,0.467 3.722,1.398 0.964,0.934 1.447,2.334 1.447,4.199 v 3.669 c -0.747,-1.185 -1.704,-2.118 -2.874,-2.799 -1.171,-0.68 -2.514,-1.021 -4.031,-1.021 -1.827,0 -3.492,0.46 -4.996,1.38 -1.505,0.921 -2.701,2.2 -3.589,3.839 -0.887,1.639 -1.331,3.505 -1.331,5.598 0,2.093 0.444,3.952 1.331,5.579 0.888,1.626 2.084,2.893 3.589,3.801 1.504,0.907 3.169,1.361 4.996,1.361 1.517,0 2.867,-0.316 4.05,-0.945"
             style="fill:#138808;fill-opacity:1;fill-rule:nonzero;stroke:none"
             id="path190" />
        </g>
        <g
           id="g192"
           transform="translate(534.9258,66.5089)">
          <path
             d="m 0,0 c 1.248,-0.694 2.231,-1.715 2.952,-3.064 0.72,-1.349 1.079,-2.957 1.079,-4.823 v -12.329 h -5.4 v 11.573 c 0,1.639 -0.424,2.893 -1.274,3.763 -0.848,0.87 -2.005,1.305 -3.472,1.305 -1.465,0 -2.629,-0.435 -3.491,-1.305 -0.862,-0.87 -1.293,-2.124 -1.293,-3.763 v -11.573 h -5.439 V 7.773 h 5.439 V -2.402 c 0.669,1.109 1.576,1.96 2.721,2.552 1.144,0.593 2.449,0.89 3.915,0.89 C -2.669,1.04 -1.248,0.694 0,0"
             style="fill:#138808;fill-opacity:1;fill-rule:nonzero;stroke:none"
             id="path194" />
        </g>
        <g
           id="g196"
           transform="translate(555.4308,50.7549)">
          <path
             d="m 0,0 v -4.462 h -3.434 c -2.186,0 -3.871,0.491 -5.053,1.474 -1.183,0.984 -1.776,2.61 -1.776,4.88 v 10.249 h -2.276 v 4.35 h 2.276 v 5.182 h 5.441 v -5.182 h 4.784 v -4.35 H -4.822 V 1.892 c 0,-0.681 0.167,-1.167 0.5,-1.457 C -3.988,0.145 -3.409,0 -2.586,0 Z"
             style="fill:#138808;fill-opacity:1;fill-rule:nonzero;stroke:none"
             id="path198" />
        </g>
      </g>
    </g>
  </g>
</svg>
