<?xml version="1.0" encoding="utf-8"?>
<!-- Generator: Adobe Illustrator 27.1.1, SVG Export Plug-In . SVG Version: 6.00 Build 0)  -->
<svg version="1.1" id="Layer_1" xmlns="http://www.w3.org/2000/svg" xmlns:xlink="http://www.w3.org/1999/xlink" x="0px" y="0px"
	 viewBox="0 0 596.88 574.69" style="enable-background:new 0 0 596.88 574.69;" xml:space="preserve">
<style type="text/css">
	.st0{fill:#000080;}
</style>
<g>
	<path class="st0" d="M403.19,261.09c-42.7-34.03-82.92-3.09-88.49,19.8c-5.57,22.89-14.85,29.7-14.85,29.7s3.09-43.93-47.65-70.54
		c-50.74-26.61-87.25,9.28-87.25,9.28s0,0,24.13,32.18c64.35-27.23,83.54,14.85,83.54,14.85s0,0-11.14,9.28
		c-39.6-11.76-61.26-6.19-69.92-2.48c-8.66,3.71-6.19,15.47,21.66,36.51c45.17-20.42,74.25,1.24,77.35,13.61
		c3.09,12.38,7.43,47.65-50.12,49.5c-57.55,1.86-86.01-56.93-86.01-56.93c16.09,115.09,119.43,109.52,150.98,79.2
		c28.65-27.52,11.76-72.4,11.76-72.4s0,0,13.61-31.56c13.61-31.56,37.13-45.17,53.83-35.89c16.71,9.28,29.7,30.94,18.56,57.55
		c-11.14,26.61-48.88,32.8-48.88,32.8s9.9,32.18,30.32,37.13C471.26,378.04,445.89,295.12,403.19,261.09z"/>
	<path class="st0" d="M275.63,233.69c60.33,21.01,89.42-25.86,89.42-25.86s0,0-27.47-31.24c-63.03,64.64-112.58-1.62-112.58-1.62
		S222.3,211.6,275.63,233.69z"/>
	<circle class="st0" cx="287.25" cy="155.28" r="24.31"/>
</g>
</svg>
